<svg width="95" height="56" viewBox="0 0 95 56" fill="none" xmlns="http://www.w3.org/2000/svg">
<path fill-rule="evenodd" clip-rule="evenodd" d="M12.5379 42C12.6262 45.0982 13.3056 47.1435 14.576 48.136C15.984 49.16 17.648 49.672 19.568 49.672C22.5547 49.672 24.9013 48.712 26.608 46.792C27.7782 45.4755 28.5472 43.8782 28.9151 42H35.6599C35.2313 45.0406 33.9633 47.5126 31.856 49.416C29.2533 51.8053 25.0507 53 19.248 53H1.392L0.559998 50.824L2.032 50.44C3.184 50.0987 4.03733 49.736 4.592 49.352C5.14666 48.968 5.53066 48.4133 5.744 47.688C6 46.92 6.128 45.8533 6.128 44.488V42H12.5379ZM12.528 20V15.56C12.528 14.1947 12.6347 13.1707 12.848 12.488C13.0613 11.8053 13.4453 11.336 14 11.08C14.5547 10.7813 15.408 10.632 16.56 10.632H22.832C24.368 10.632 25.5413 10.8027 26.352 11.144C27.2053 11.4427 27.888 11.9973 28.4 12.808C28.912 13.576 29.3813 14.7707 29.808 16.392L30.128 17.864L32.368 17.096V5.76801L31.28 4.936L30.128 5.76801C29.5307 6.23734 28.656 6.57867 27.504 6.792C26.352 6.96267 24.816 7.048 22.896 7.048H3.312L2.48 8.07201L3.312 9.22401C4.336 10.632 5.06133 12.1253 5.488 13.704C5.91466 15.2827 6.128 17.352 6.128 19.912V20H12.528Z" fill="#332320"/>
<path fill-rule="evenodd" clip-rule="evenodd" d="M65.376 43.592C65.376 42.952 65.0773 42.5893 64.48 42.504C63.5159 42.3778 62.6032 42.2098 61.7419 42H50.7264C51.7564 42.6987 52.8636 43.2933 54.048 43.784C57.0347 44.9787 59.9787 45.576 62.88 45.576C64.544 45.576 65.376 44.9147 65.376 43.592ZM45.8354 20H52.915C53.4152 19.2123 54.0062 18.5003 54.688 17.864C57.2907 15.4747 60.7253 14.1733 64.992 13.96C65.76 13.9173 66.272 14.024 66.528 14.28C66.784 14.4933 66.912 14.92 66.912 15.56V20H73.248V15.56C73.248 14.9627 73.376 14.5573 73.632 14.344C73.888 14.088 74.4 13.96 75.168 13.96C79.392 13.96 82.8053 15.176 85.408 17.608C86.1803 18.318 86.8399 19.1154 87.3868 20H94.4454C94.2608 19.687 94.0643 19.3803 93.856 19.08C92.0213 16.392 89.376 14.3227 85.92 12.872C82.5067 11.3787 78.4107 10.5893 73.632 10.504C73.8453 8.92532 74.144 7.64532 74.528 6.66399C74.912 5.63999 75.4667 4.48799 76.192 3.20798L76.96 1.99199L76.192 0.967987H64.032L63.328 3.20798L64.736 3.59199C65.5893 3.84799 66.144 4.53065 66.4 5.63999C66.6987 6.70665 66.8693 8.30665 66.912 10.44C62.304 10.5253 58.2293 11.2933 54.688 12.744C51.1893 14.1947 48.4587 16.2853 46.496 19.016C46.2618 19.3367 46.0416 19.6647 45.8354 20ZM89.3386 42H78.4821C77.6208 42.2098 76.7081 42.3778 75.744 42.504C75.104 42.5893 74.784 42.952 74.784 43.592C74.784 44.2747 74.9973 44.7867 75.424 45.128C75.8933 45.4267 76.512 45.576 77.28 45.576C80.1813 45.576 83.1253 44.9573 86.112 43.72C87.26 43.2444 88.3356 42.671 89.3386 42ZM73.248 42H66.912V47.048C66.912 49.0107 66.6347 50.376 66.08 51.144C65.568 51.8693 64.5013 52.488 62.88 53L61.344 53.32L62.112 55.56H77.792L78.56 53.512L77.152 53.128C75.5733 52.6587 74.528 52.0613 74.016 51.336C73.504 50.6107 73.248 49.3307 73.248 47.496V42Z" fill="#332320"/>
</svg>
